<?xml version="1.0" encoding="UTF-8"?>
<svg xmlns="http://www.w3.org/2000/svg" xmlns:xlink="http://www.w3.org/1999/xlink" viewBox="0 0 30 30" width="30px" height="30px">
<g id="surface47997745">
<rect x="0" y="0" width="30" height="30" style="fill:rgb(93.725491%,93.333334%,93.333334%);fill-opacity:1;stroke:none;"/>
<path style=" stroke:none;fill-rule:nonzero;fill:rgb(40.000001%,40.000001%,40.000001%);fill-opacity:1;" d="M 4 3 C 2.894531 3 2 3.894531 2 5 L 2 8 L 28 8 L 28 7 C 28 5.894531 27.105469 5 26 5 L 11.199219 5 L 10.582031 3.972656 C 10.222656 3.367188 9.570312 3 8.867188 3 Z M 3 10 C 2.449219 10 2 10.449219 2 11 L 2 23 C 2 24.105469 2.894531 25 4 25 L 26 25 C 27.105469 25 28 24.105469 28 23 L 28 11 C 28 10.449219 27.550781 10 27 10 Z M 3 10 "/>
</g>
</svg>
